<?xml version="1.0" standalone="no"?>
<!DOCTYPE svg PUBLIC "-//W3C//DTD SVG 20010904//EN"
 "http://www.w3.org/TR/2001/REC-SVG-20010904/DTD/svg10.dtd">
<svg version="1.0" xmlns="http://www.w3.org/2000/svg"
 width="48.000000pt" height="51.000000pt" viewBox="0 0 512.000000 512.000000"
 preserveAspectRatio="xMidYMid meet">

<g transform="translate(0.000000,512.000000) scale(0.100000,-0.100000)"
fill="#000000" stroke="none">
<path d="M2553 4798 c-16 -20 -549 -961 -557 -982 -4 -11 0 -29 9 -42 15 -24
17 -24 205 -24 l189 0 -49 -102 -49 -102 -148 -36 c-240 -60 -431 -144 -632
-278 -51 -35 -94 -62 -95 -60 -2 2 -14 48 -28 104 -122 473 -445 928 -793
1116 -184 100 -399 156 -434 114 -20 -24 -34 -194 -28 -351 16 -406 150 -798
386 -1129 75 -105 233 -269 320 -331 38 -27 70 -53 70 -57 1 -4 -18 -38 -41
-75 -63 -104 -132 -256 -172 -382 -154 -487 -33 -939 349 -1310 202 -195 411
-323 693 -425 272 -98 514 -138 822 -137 632 2 1197 229 1563 628 364 397 444
876 231 1392 -31 75 -109 223 -151 287 -12 20 -9 24 62 78 285 219 525 599
635 1006 55 208 65 286 65 535 0 204 -2 234 -18 258 -15 23 -25 27 -61 27
-112 0 -368 -106 -511 -212 -100 -74 -269 -248 -345 -355 -159 -226 -246 -420
-336 -750 l-9 -32 -104 69 c-136 91 -295 169 -459 224 -74 24 -136 46 -138 49
-3 2 104 102 238 222 134 119 247 225 252 235 6 13 4 27 -8 44 l-16 26 -201 2
-201 3 286 344 c188 226 286 352 286 367 0 55 13 54 -549 54 -403 0 -521 -3
-528 -12z m897 -103 c0 -3 -128 -159 -285 -346 -157 -187 -285 -348 -285 -358
0 -9 6 -26 14 -37 13 -17 31 -19 200 -24 l185 -5 -214 -190 c-203 -180 -216
-190 -252 -188 -21 1 -115 5 -210 9 l-172 7 55 108 c92 184 87 189 -157 189
-98 0 -179 2 -179 5 0 2 106 191 236 420 l237 415 413 0 c228 0 414 -2 414 -5z
m-2419 -868 c139 -208 244 -464 290 -711 18 -96 26 -120 44 -132 33 -21 74 -3
81 36 14 68 326 255 554 333 443 150 884 124 1305 -77 182 -87 375 -219 375
-256 0 -11 11 -27 25 -36 23 -15 27 -15 50 0 14 9 25 19 25 22 0 4 11 61 25
128 61 305 202 607 385 831 101 123 96 124 103 -7 4 -67 14 -138 25 -175 42
-135 99 -169 304 -184 73 -6 134 -11 135 -13 2 -1 -9 -34 -24 -72 -43 -111
-138 -288 -210 -392 -92 -134 -272 -313 -393 -391 -142 -91 -140 -89 -140
-120 0 -48 41 -63 100 -37 30 13 149 -209 211 -394 104 -312 89 -605 -46 -875
-68 -137 -131 -223 -254 -346 -261 -260 -649 -446 -1076 -515 -133 -22 -487
-30 -613 -15 -366 45 -671 150 -932 321 -538 354 -744 870 -565 1416 59 181
185 421 215 408 54 -24 93 -13 103 28 7 27 -21 53 -141 129 -245 156 -486 471
-607 792 -22 61 -23 67 -7 67 112 2 267 22 307 41 92 43 134 138 143 324 l5
119 60 -64 c32 -36 95 -118 138 -183z"/>
<path d="M1539 2665 c-148 -54 -234 -160 -255 -312 -14 -107 50 -249 144 -318
182 -135 434 -72 538 133 26 51 29 67 29 152 0 82 -4 103 -27 152 -28 60 -99
138 -150 164 -83 43 -206 56 -279 29z m-2 -197 c29 -27 29 -65 1 -95 -28 -30
-63 -29 -93 2 -30 30 -31 54 -4 89 25 32 64 34 96 4z"/>
<path d="M3362 2660 c-155 -56 -249 -195 -239 -356 17 -301 371 -450 594 -249
193 173 145 482 -92 592 -79 36 -185 42 -263 13z m13 -195 c14 -13 25 -33 25
-45 0 -28 -43 -70 -73 -70 -58 0 -89 79 -45 120 29 27 64 25 93 -5z"/>
<path d="M2382 2094 c-22 -15 -29 -48 -14 -70 4 -6 35 -26 70 -43 l62 -31 0
-56 c0 -50 -3 -59 -31 -85 -27 -25 -39 -29 -91 -29 -55 0 -63 3 -94 34 -20 20
-34 44 -34 58 0 40 -21 60 -60 56 -46 -4 -58 -37 -40 -104 39 -138 213 -197
359 -122 57 29 62 30 79 15 48 -44 159 -60 245 -36 97 27 175 158 137 230 -22
39 -100 15 -100 -31 0 -59 -52 -100 -125 -100 -84 0 -124 37 -125 115 l0 50
68 35 c59 31 67 39 70 67 5 55 -19 63 -198 63 -125 0 -160 -3 -178 -16z"/>
<path d="M1294 1899 c-45 -13 -119 -82 -145 -137 -32 -64 -33 -170 -2 -227 88
-166 311 -195 434 -58 69 76 84 180 42 284 -19 49 -103 125 -151 139 -44 12
-135 12 -178 -1z"/>
<path d="M3630 1889 c-25 -11 -56 -30 -69 -42 -66 -62 -99 -168 -80 -258 33
-153 217 -243 360 -177 68 32 105 69 137 137 20 44 24 64 19 111 -9 106 -66
192 -152 231 -56 26 -156 25 -215 -2z"/>
</g>
</svg>
